<svg width="33" height="32" fill="none" xmlns="http://www.w3.org/2000/svg"><g clip-path="url(#clip0_277_13471)" fill="#FF7010"><path d="M18.17 15.792a2.36 2.36 0 00-1.67-.696 2.36 2.36 0 00-1.67.696s-1.31 1.336-1.684 1.637L14.291 32h4.424l1.147-14.561c-.216-.12-1.694-1.647-1.694-1.647zm-8.295-.15a2.364 2.364 0 00-1.583-.692 2.358 2.358 0 00-1.628.575L4.37 17.49l2.208 12.46a2.5 2.5 0 00.836 1.465c.439.373.992.577 1.563.576h4.005l-1.14-14.478c-.26-.1-1.967-1.87-1.967-1.87zM15.97 2.68c.17.069.35.106.531.11a1.31 1.31 0 001.144-.628 1.392 1.392 0 00.088-1.38 1.394 1.394 0 00-.39-.489 1.361 1.361 0 00-1.18-.25 1.36 1.36 0 00-.55.288 1.422 1.422 0 00-.322 1.73c.154.277.393.494.68.62z"/><path d="M24.409 8.512l-.374-.09-.092-.381c-.586-2.338-2.674-4.239-5.377-4.886a2.51 2.51 0 01-.92.738 2.47 2.47 0 01-1.148.233c-1.098 0-2.006-.918-2.058-.981-2.7.647-4.788 2.528-5.371 4.879l-.089.397-.376.1a6.39 6.39 0 00-3.803 2.85 6.607 6.607 0 00-.841 4.732l1.858-1.593a3.654 3.654 0 012.52-.89c.92.034 1.793.415 2.451 1.07l1.639 1.617 1.5-1.48a3.547 3.547 0 011.18-.797 3.495 3.495 0 011.39-.265 3.693 3.693 0 012.585 1.085l1.469 1.463 1.674-1.64a3.663 3.663 0 012.446-1.055 3.656 3.656 0 012.509.888l1.855 1.597a6.597 6.597 0 00-.828-4.736 6.381 6.381 0 00-3.8-2.855z"/><path d="M23.134 15.622s-1.763 1.783-1.966 1.863L20.024 31.99h4.011c.571 0 1.124-.204 1.563-.577.438-.373.734-.89.836-1.464l1.098-6.192 1.09-6.269-2.293-1.973a2.362 2.362 0 00-1.618-.572c-.59.02-1.152.262-1.577.679z"/></g><defs><clipPath id="clip0_277_13471"><path fill="#fff" transform="translate(.5)" d="M0 0h32v32H0z"/></clipPath></defs></svg>