<svg width="33" height="32" fill="none" xmlns="http://www.w3.org/2000/svg"><g clip-path="url(#clip0_277_13438)" fill="#FF7010"><path d="M26.655 23.005a2.887 2.887 0 01-.834 2.325 2.883 2.883 0 01-2.323.835 1.693 1.693 0 00-1.702.984 2.885 2.885 0 01-1.884 1.596 2.88 2.88 0 01-2.429-.44 1.728 1.728 0 00-.383-.2V32c5.447-.202 10.204-3.141 12.94-7.482l-3.366-1.945a1.684 1.684 0 00-.019.432zm-12.815 5.84a2.9 2.9 0 01-2.636-1.696 1.695 1.695 0 00-1.702-.984 2.884 2.884 0 01-2.323-.835 2.887 2.887 0 01-.834-2.325 1.687 1.687 0 00-.019-.432l-3.365 1.945c2.735 4.34 7.492 7.28 12.939 7.482v-3.894a1.68 1.68 0 00-.383.2 2.881 2.881 0 01-1.677.539zm-.441-24.43c-.49.131-.892.472-1.102.934a2.897 2.897 0 01-2.91 1.682 1.692 1.692 0 00-1.848 1.848c.04.405-.015.8-.135 1.17L15.9 14.96V5.14a2.879 2.879 0 01-1.08-.468 1.687 1.687 0 00-1.421-.257zm.168 6.5a1.892 1.892 0 01-2.587-.694 1.896 1.896 0 01.693-2.589 1.893 1.893 0 012.587.694 1.896 1.896 0 01-.693 2.59zM5.362 21.3a2.884 2.884 0 01-1.595-1.884 2.887 2.887 0 01.44-2.432 1.698 1.698 0 000-1.968 2.888 2.888 0 01-.44-2.431A2.885 2.885 0 015.362 10.7a1.67 1.67 0 00.364-.232L2.358 8.52A15.924 15.924 0 00.5 16.001c0 2.7.674 5.244 1.858 7.478l3.368-1.946c-.11-.09-.23-.171-.364-.233zm14.55-18.045a2.884 2.884 0 011.884 1.596 1.691 1.691 0 001.702.984 2.883 2.883 0 012.323.835c.614.614.917 1.461.834 2.325-.014.147-.004.291.019.432l3.365-1.945C27.304 3.142 22.547.202 17.1 0v3.894c.133-.05.263-.114.383-.2a2.878 2.878 0 012.429-.44z"/><path d="M4.926 19.104c.131.49.471.893.933 1.103.37.169.684.413.945.703L15.3 16l-8.496-4.91c-.26.29-.575.534-.945.702a1.688 1.688 0 00-.933 1.104 1.689 1.689 0 00.257 1.422 2.897 2.897 0 010 3.364 1.69 1.69 0 00-.257 1.422zm3.814-5a1.894 1.894 0 11-.001 3.79 1.894 1.894 0 01.001-3.79zM2.96 7.482l3.366 1.945a1.68 1.68 0 00.019-.432 2.887 2.887 0 01.834-2.325 2.882 2.882 0 012.323-.835 1.694 1.694 0 001.702-.984 2.885 2.885 0 011.884-1.596 2.88 2.88 0 012.429.44c.12.085.25.149.383.2V0C10.453.202 5.696 3.141 2.96 7.482zm27.682 1.039l-3.368 1.947c.11.09.23.17.364.232.79.36 1.37 1.046 1.595 1.885a2.887 2.887 0 01-.44 2.431 1.698 1.698 0 000 1.968c.505.707.665 1.593.44 2.432a2.885 2.885 0 01-1.595 1.885 1.681 1.681 0 00-.364.232l3.368 1.946A15.925 15.925 0 0032.5 16c0-2.7-.674-5.245-1.858-7.479zM7.54 23.12a1.695 1.695 0 001.847 1.85 2.888 2.888 0 012.91 1.68c.21.463.612.804 1.102.935.49.131 1.008.038 1.42-.257.331-.236.7-.387 1.081-.468v-9.82l-8.496 4.91c.12.37.174.766.135 1.17zm3.44-1.341a1.892 1.892 0 012.587-.694 1.896 1.896 0 01.693 2.589 1.893 1.893 0 01-2.587.694 1.896 1.896 0 01-.693-2.59zm8.621 5.806c.49-.131.892-.472 1.102-.934a2.9 2.9 0 012.91-1.682 1.694 1.694 0 001.848-1.849c-.04-.404.015-.8.135-1.17L17.1 17.04v9.82c.38.081.75.232 1.08.468.413.295.932.389 1.421.257zm-.168-6.5a1.893 1.893 0 012.587.694 1.896 1.896 0 01-.694 2.589 1.893 1.893 0 01-2.586-.694 1.896 1.896 0 01.693-2.59z"/><path d="M28.074 12.896a1.687 1.687 0 00-.933-1.103 2.876 2.876 0 01-.945-.703L17.7 16l8.496 4.91c.26-.29.575-.534.945-.703.462-.21.802-.612.933-1.103a1.689 1.689 0 00-.257-1.422 2.897 2.897 0 010-3.364c.295-.413.388-.932.257-1.422zm-3.815 5a1.894 1.894 0 11.002-3.79 1.894 1.894 0 01-.002 3.79zM25.46 8.88a1.692 1.692 0 00-1.847-1.85 2.89 2.89 0 01-2.91-1.68 1.689 1.689 0 00-2.523-.678c-.33.236-.7.387-1.08.468v9.82l8.496-4.91a2.88 2.88 0 01-.136-1.17zm-3.44 1.341a1.893 1.893 0 01-2.587.694 1.896 1.896 0 01-.693-2.589 1.893 1.893 0 012.587-.694 1.896 1.896 0 01.693 2.59z"/></g><defs><clipPath id="clip0_277_13438"><path fill="#fff" transform="translate(.5)" d="M0 0h32v32H0z"/></clipPath></defs></svg>