<svg width="33" height="32" fill="none" xmlns="http://www.w3.org/2000/svg"><g clip-path="url(#clip0_277_13489)" fill="#FF7010"><path d="M19.96 19.382c-4.257 0-8.267.626-11.6 1.81a7.578 7.578 0 01-2.544.44 7.5 7.5 0 01-3.047-.647A6.79 6.79 0 009.319 26h15.492a6.79 6.79 0 006.574-5.104 3.314 3.314 0 01-.893-.125c-3.212-.909-6.855-1.39-10.533-1.39zm-9.419-1.13a36.725 36.725 0 014.146-.752c-2.782-3.04-3.041-8.159-.503-11.5a22.225 22.225 0 00-5.896.974 6.831 6.831 0 00-1.928 3.377c-.813 3.207 1.083 6.767 4.181 7.901z"/><path d="M7.604 19.122c-2.782-2.081-4.231-5.678-3.395-9.27a8.97 8.97 0 01.42-1.322 16.43 16.43 0 00-2.078 1.372C-1.458 13 .825 19.442 5.816 19.43c.594 0 1.198-.1 1.788-.308zm18.842-9.896a4.86 4.86 0 00-2.235 2.247 4.849 4.849 0 00.466 5.014c.164.222.77.89.826 1.042 1.924.245 3.807.618 5.592 1.123.37.105.77.01 1.053-.253a1.1 1.1 0 00.33-1.03c-.675-3.26-2.888-6.11-6.032-8.143zm-8.756 8.012a44.341 44.341 0 014.848.017 7.04 7.04 0 01-.314-6.74 7.06 7.06 0 012.026-2.503c-2.139-1.004-4.572-1.674-7.164-1.92-3.509 2.89-3.18 8.677.604 11.146z"/></g><defs><clipPath id="clip0_277_13489"><path fill="#fff" transform="translate(.5)" d="M0 0h32v32H0z"/></clipPath></defs></svg>