<svg width="141" height="32" fill="none" xmlns="http://www.w3.org/2000/svg"><path d="M45.57 13.534V8H44v12.596h1.57V14.79h.367l5.69 5.805h2.078l-6.415-6.53L53.2 8h-1.973l-5.289 5.534h-.366zM55.73 24c1.667 0 2.418-.646 3.22-2.828l3.675-9.986h-1.597l-2.575 7.742h-.14l-2.583-7.742h-1.623l3.482 9.419-.175.558c-.392 1.135-.864 1.545-1.728 1.545-.21 0-.445-.009-.628-.043v1.283c.21.035.471.052.672.052zm14.706-4.661h-4.643v-.14c.445-.585.69-1.589.777-2.732l.297-4.024h3.57v6.896zm-5.769 3.745v-2.488h7.358v2.488h1.413v-3.745h-1.5v-8.153h-6.416l-.366 5.246c-.087 1.266-.428 2.453-1.117 2.907h-.786v3.745h1.414zm13.65-3.64c-1.09 0-1.902-.56-1.902-1.52 0-.942.628-1.44 2.06-1.536l2.53-.165v.864c0 1.344-1.143 2.357-2.688 2.357zm-.279 1.318c1.257 0 2.287-.55 2.898-1.554h.14v1.388h1.43v-6.442c0-1.955-1.282-3.134-3.578-3.134-2.007 0-3.49.995-3.692 2.505h1.52c.209-.742.994-1.17 2.12-1.17 1.405 0 2.13.638 2.13 1.799v.855l-2.715.166c-2.19.131-3.43 1.1-3.43 2.785 0 1.72 1.353 2.802 3.177 2.802zm18.564-.166h1.501v-9.41h-7.61v9.41h1.5v-8.153h4.609v8.153zm5.987 0l4.687-7.018h.14v7.018h1.501v-9.41h-1.501l-4.687 7.018h-.14v-7.018h-1.501v9.41h1.501zm18.346 2.488v-3.745h-1.501v-8.153h-1.502v8.153h-4.52v-8.153h-1.502v9.41h7.611v2.488h1.414zm10.997 0v-3.745h-1.501v-8.153h-1.502v8.153h-4.521v-8.153h-1.501v9.41h7.611v2.488h1.414zm4.879-3.64c-1.091 0-1.903-.56-1.903-1.52 0-.942.628-1.44 2.06-1.536l2.531-.165v.864c0 1.344-1.144 2.357-2.688 2.357zm-.28 1.318c1.257 0 2.287-.55 2.898-1.554h.14v1.388H141v-6.442c0-1.955-1.283-3.134-3.578-3.134-2.008 0-3.492.995-3.692 2.505h1.518c.21-.742.995-1.17 2.121-1.17 1.405 0 2.13.638 2.13 1.799v.855l-2.715.166c-2.19.131-3.43 1.1-3.43 2.785 0 1.72 1.353 2.802 3.177 2.802z" fill="#191919"/><path d="M31.814.18a.625.625 0 00-.649-.144L5.205 9.292A3.417 3.417 0 00.26 13.513a33.513 33.513 0 007.3 10.926 33.511 33.511 0 0010.927 7.3 3.424 3.424 0 004.467-1.85 3.408 3.408 0 00-.02-2.655L31.967.827a.625.625 0 00-.152-.647zM9.136 9.218l2.751-.98a1.59 1.59 0 01-.192 2.352 1.582 1.582 0 01-1.178.316 1.583 1.583 0 01-1.056-.61 1.581 1.581 0 01-.325-1.078zM21.8 29.411a2.171 2.171 0 01-2.834 1.174c-8.002-3.315-14.235-9.548-17.55-17.55a2.155 2.155 0 010-1.66A2.155 2.155 0 012.59 10.2a2.155 2.155 0 011.66 0c.535.222.952.639 1.173 1.174a27.95 27.95 0 006.09 9.113 27.952 27.952 0 009.113 6.09A2.171 2.171 0 0121.8 29.41zm5.552-18.953a1.582 1.582 0 01-1.226-.622 1.595 1.595 0 011.472-2.55c.27.037.522.14.737.3l-.983 2.872zM28.75 6.37a2.842 2.842 0 00-3.615 4.227 2.82 2.82 0 001.802 1.075l-1.242 3.633-1.429-1.096a.625.625 0 00-.76.991l1.762 1.353L22.037 26a3.405 3.405 0 00-.933-.577C14.48 22.679 9.32 17.52 6.578 10.897a3.419 3.419 0 00-.351-.642l1.674-.596c.058.504.252.985.569 1.398a2.824 2.824 0 002.261 1.113c.622 0 1.223-.203 1.725-.588a2.838 2.838 0 00.665-3.785l7.77-2.77.294.711a.625.625 0 001.155-.478l-.27-.653 8.294-2.958L28.75 6.37z" fill="#FF7010"/><path d="M6.75 16.767zm-.95-1.553a29.582 29.582 0 01-1.628-3.321.625.625 0 10-1.155.478 30.818 30.818 0 001.697 3.463.625.625 0 101.085-.62zM19.558 8a2.85 2.85 0 00-3.19 2.448 2.846 2.846 0 002.822 3.213 2.85 2.85 0 002.816-2.472 2.846 2.846 0 00-2.448-3.19zm1.209 3.026a1.596 1.596 0 01-1.788 1.371 1.595 1.595 0 01-1.371-1.787 1.596 1.596 0 011.787-1.371c.87.114 1.486.916 1.372 1.787zm-1.371 4.747a2.85 2.85 0 00-3.19 2.448c-.1.753.1 1.5.563 2.102a2.825 2.825 0 002.258 1.112 2.85 2.85 0 002.816-2.472 2.846 2.846 0 00-2.447-3.19zm1.208 3.027a1.596 1.596 0 01-1.787 1.371 1.583 1.583 0 01-1.056-.61 1.583 1.583 0 01-.316-1.177 1.596 1.596 0 011.787-1.372 1.596 1.596 0 011.372 1.788zm-5.331-5.616l-1.92-.253a.625.625 0 10-.164 1.24l1.921.253a.625.625 0 00.163-1.24zm-.973 4.612l-.17-1.289a.625.625 0 10-1.24.163l.17 1.29a.625.625 0 101.24-.164z" fill="#FF7010"/></svg>