<?xml version="1.0" encoding="utf-8"?><svg xmlns="http://www.w3.org/2000/svg" xmlns:xlink="http://www.w3.org/1999/xlink"><symbol viewBox="0 0 41 35" id="chiese" xmlns="http://www.w3.org/2000/svg"><path d="M17.695 24.78c-1.977 0-3.586 1.443-3.586 3.217s1.609 3.217 3.586 3.217c1.977 0 3.586-1.443 3.586-3.217s-1.609-3.218-3.586-3.218zm0 5.032c-1.116 0-2.023-.814-2.023-1.815s.907-1.816 2.023-1.816 2.023.815 2.023 1.816c0 1-.907 1.815-2.023 1.815zM31.84 22.348c-1.503 0-2.726 1.097-2.726 2.446 0 1.35 1.223 2.447 2.727 2.447 1.503 0 2.726-1.098 2.726-2.447s-1.223-2.446-2.726-2.446zm0 3.49c-.641 0-1.163-.468-1.163-1.044 0-.576.522-1.044 1.164-1.044.641 0 1.163.469 1.163 1.044 0 .576-.522 1.045-1.163 1.045zM9.055 18.712c-1.411 0-2.559 1.03-2.559 2.296 0 1.266 1.148 2.297 2.559 2.297 1.41 0 2.559-1.03 2.559-2.297 0-1.266-1.148-2.296-2.559-2.296zm0 3.19c-.55 0-.996-.4-.996-.894 0-.493.446-.894.996-.894s.996.401.996.894-.447.895-.996.895zM30.46 8.781c1.43 0 2.592-1.043 2.592-2.325 0-1.282-1.163-2.325-2.592-2.325-1.428 0-2.59 1.043-2.59 2.325 0 1.282 1.162 2.325 2.59 2.325zm0-3.248c.568 0 1.03.414 1.03.923 0 .51-.462.923-1.03.923-.567 0-1.028-.414-1.028-.923 0-.509.461-.923 1.028-.923z"/><path d="M40.456 14.9l-.082-.523c-.752-4.79-3.005-9.255-6.516-12.912-1.473-1.534-3.956-1.913-5.906-.9L17.34 6.078c-.278.145-.43.427-.38.712.097.578-.11 1.146-.57 1.559-.729.654-1.886.713-2.69.136a.854.854 0 00-.88-.059L2.762 13.652a4.337 4.337 0 00-1.597 1.404.679.679 0 00-.236.394A3.713 3.713 0 00.5 17.17v8.31c0 .388.35.701.781.701 1.116 0 2.023.815 2.023 1.816 0 1-.907 1.815-2.023 1.815-.431 0-.781.314-.781.701v.421C.5 33.176 2.533 35 5.031 35h22.626c.431 0 .78-.314.78-.701 0-1.001.909-1.816 2.024-1.816s2.023.815 2.023 1.816c0 .387.35.701.781.701h2.704c2.498 0 4.531-1.824 4.531-4.066V15.466c0-.189-.015-.38-.044-.567zm-4.487 18.698H33.96c-.358-1.438-1.791-2.517-3.5-2.517s-3.142 1.079-3.5 2.517H5.03c-1.561 0-2.845-1.087-2.96-2.462 1.598-.324 2.796-1.608 2.796-3.14s-1.202-2.819-2.804-3.14v-7.685c0-.313.062-.617.178-.903h5.316c.432 0 .782-.314.782-.701 0-.387-.35-.701-.782-.701H3.543l9.637-5.007c1.383.712 3.154.522 4.314-.519.672-.603 1.046-1.424 1.05-2.267l10.191-5.295c1.3-.675 2.956-.422 3.94.602 3.314 3.453 5.442 7.669 6.151 12.192l.047.294H21.624c.323-.816 1.19-1.402 2.21-1.402.431 0 .78-.314.78-.702 0-.387-.349-.7-.78-.7-1.887 0-3.465 1.206-3.828 2.804h-5.678c-.431 0-.781.314-.781.7 0 .388.35.702.781.702h5.678c.363 1.598 1.94 2.804 3.827 2.804s3.465-1.206 3.828-2.804h11.276v14.666c0 1.469-1.331 2.664-2.968 2.664zm-9.926-17.33c-.323.816-1.191 1.402-2.21 1.402-1.018 0-1.886-.586-2.209-1.402h4.419z"/><path d="M11.047 14.866a.836.836 0 00-.553.205.672.672 0 00-.228.496c0 .184.083.365.229.495.145.13.347.206.552.206a.835.835 0 00.552-.206.672.672 0 00.23-.495.672.672 0 00-.23-.496.835.835 0 00-.552-.205z"/></symbol><symbol viewBox="0 0 33 32" id="combo" xmlns="http://www.w3.org/2000/svg"><g clip-path="url(#bclip0_277_13500)"><mask id="bmask0_277_13500" maskUnits="userSpaceOnUse" x="0" y="0" width="17" height="32"><path d="M.5 0h16.4v32H.5z"/></mask><g mask="url(#bmask0_277_13500)"><path d="M13.84 28.845a2.9 2.9 0 01-2.636-1.696 1.695 1.695 0 00-1.702-.984 2.884 2.884 0 01-2.323-.835 2.887 2.887 0 01-.834-2.325 1.687 1.687 0 00-.019-.432l-3.365 1.945c2.735 4.34 7.492 7.28 12.939 7.482v-3.894a1.68 1.68 0 00-.383.2 2.881 2.881 0 01-1.677.539zM13.399 4.415c-.49.131-.892.472-1.103.934a2.897 2.897 0 01-2.91 1.682c-.505-.049-1 .129-1.359.488-.359.36-.536.855-.488 1.36.04.405-.015.8-.135 1.17L15.9 14.96V5.14c-.38-.081-.75-.232-1.08-.468a1.687 1.687 0 00-1.421-.257zm.168 6.5a1.893 1.893 0 01-2.587-.694 1.896 1.896 0 01.693-2.589 1.893 1.893 0 012.587.694 1.896 1.896 0 01-.693 2.59zM5.362 21.3a2.884 2.884 0 01-1.595-1.884 2.887 2.887 0 01.44-2.432c.419-.588.419-1.38 0-1.968a2.888 2.888 0 01-.44-2.431A2.885 2.885 0 015.362 10.7c.134-.061.254-.142.364-.232L2.358 8.52A15.924 15.924 0 00.5 16.001c0 2.7.674 5.244 1.858 7.478l3.368-1.946c-.11-.09-.23-.171-.364-.233z"/><path d="M4.926 19.104c.131.49.471.893.933 1.103.37.169.685.413.945.703L15.3 16l-8.496-4.91c-.26.29-.575.534-.945.702-.462.211-.802.613-.933 1.104-.131.49-.038 1.009.257 1.422a2.897 2.897 0 010 3.364 1.69 1.69 0 00-.257 1.422zm3.814-5a1.894 1.894 0 11-.001 3.79 1.894 1.894 0 01.001-3.79zM2.96 7.482l3.366 1.945c.023-.14.033-.285.019-.432a2.887 2.887 0 01.834-2.325 2.882 2.882 0 012.323-.835 1.694 1.694 0 001.702-.984 2.885 2.885 0 011.884-1.596 2.88 2.88 0 012.429.44c.12.085.25.149.383.2V0C10.453.202 5.696 3.141 2.96 7.482zM7.54 23.12a1.695 1.695 0 001.847 1.85 2.888 2.888 0 012.91 1.68c.21.463.611.804 1.102.935.49.131 1.008.038 1.42-.257.331-.236.7-.387 1.081-.468v-9.82l-8.496 4.91c.12.37.174.766.135 1.17zm3.44-1.341a1.893 1.893 0 012.587-.694 1.896 1.896 0 01.693 2.589 1.893 1.893 0 01-2.587.694 1.896 1.896 0 01-.693-2.59z"/></g><path d="M30.417 26.261a5.26 5.26 0 01-.21-4.4c.628-1.558.96-3.355.96-5.194 0-3.145-.878-5.076-1.727-6.943-.76-1.67-1.472-3.267-1.584-5.729a.664.664 0 00-.023-1.328v-2A.666.666 0 0027.167 0h-5.334a.666.666 0 00-.666.667v2a.664.664 0 00-.023 1.329c-.112 2.46-.825 4.058-1.584 5.728-.849 1.867-1.727 3.798-1.727 6.943 0 1.839.332 3.636.96 5.194a5.263 5.263 0 01-.21 4.401 6.678 6.678 0 00-.75 3.071c0 .75.13 1.497.387 2.222a.666.666 0 00.628.445h11.303a.666.666 0 00.628-.444 6.613 6.613 0 00-.362-5.295c0 .001 0 .001 0 0zM26.514 4c.02.475.066.911.123 1.333h-4.274c.058-.422.104-.858.124-1.333h4.027zm2.451 8c.164.424.312.865.44 1.333h-9.81c.128-.468.276-.909.44-1.333h8.93zm.442 8c-.12.46-.257.909-.426 1.333H20.02c-.17-.424-.307-.873-.427-1.333h9.814z"/></g><defs><clipPath id="bclip0_277_13500"><path transform="translate(.5)" d="M0 0h32v32H0z"/></clipPath></defs></symbol><symbol viewBox="0 0 40 40" id="cucumber" xmlns="http://www.w3.org/2000/svg"><path d="M39.452 13.781c.43-1.685.337-3.396-.266-4.832a5.528 5.528 0 00-1.48-2.074l.315-1.594c.14-.702.476-1.35.975-1.875a1.335 1.335 0 00.015-1.842L37.88.339a1.063 1.063 0 00-1.705.205l-.495.913a15.716 15.716 0 00-.989 2.22 4.519 4.519 0 00-1.08-1.432c.2-.463.373-.972.513-1.518a.585.585 0 00-.44-.71.603.603 0 00-.728.428 8.866 8.866 0 01-.355 1.096c-1.324-.722-2.94-.94-3.932-.161-.68.532-1.141 1.636-.739 2.56.4.916 1.488 1.315 2.333 1.295 1.034-.022 2.013-.72 2.77-1.899.51.529.877 1.393.92 2.31a7.35 7.35 0 00-3.05.747c-1.568.758-2.92 2.028-3.807 3.578a37.52 37.52 0 01-1.869 2.975 1.876 1.876 0 00-.763-.023 1.772 1.772 0 00-1.453 1.447c-.067.414.014.828.23 1.18a38.237 38.237 0 01-4.677 4.71.575.575 0 00-.06.826c.218.244.598.27.848.058a39.407 39.407 0 004.924-4.976.957.957 0 00.026-1.177.57.57 0 01-.103-.438.591.591 0 01.479-.477.622.622 0 01.31.021c.424.143.899-.013 1.155-.38a38.701 38.701 0 002.006-3.179c1.372-2.398 3.906-3.842 6.266-3.71-.212.16-.424.32-.638.474-.83.603-1.57 1.322-2.206 2.142a1.856 1.856 0 00-.318-.027c-.996 0-1.806.788-1.806 1.758 0 .412.148.792.393 1.092a41.163 41.163 0 01-6.791 8.643 1.837 1.837 0 00-.663-.123c-.996 0-1.806.788-1.806 1.758 0 .18.029.353.08.517a42.238 42.238 0 01-14.55 7.906A11.403 11.403 0 001.83 33.41c-.193.177-.39.353-.589.528.275-2.285 2.175-4.465 4.836-5.364a40.48 40.48 0 002.023-.731.974.974 0 00.614-1.061.567.567 0 01-.006-.138.606.606 0 011.069-.324 1.02 1.02 0 001.222.255 40.143 40.143 0 006.142-3.69.576.576 0 00.12-.82.612.612 0 00-.842-.118 38.923 38.923 0 01-5.82 3.512 1.828 1.828 0 00-1.304-.53c-.936.006-1.72.723-1.788 1.632a1.705 1.705 0 000 .25 39.49 39.49 0 01-1.82.655c-1.72.58-3.237 1.656-4.276 3.029C.308 31.952-.173 33.658.056 35.297l.002.015v.003l.002.004c.191 1.353 1.003 2.571 2.29 3.43C3.582 39.573 5.113 40 6.74 40c.735 0 1.489-.087 2.243-.264a.585.585 0 00.444-.707.603.603 0 00-.726-.432c-2.063.484-4.184.18-5.671-.814-.655-.438-1.15-.988-1.457-1.602.309.108.618.214.928.315.829.273 1.717.409 2.623.409.93 0 1.879-.144 2.798-.432.407-.127.815-.26 1.22-.398.33.375.822.614 1.369.614.995 0 1.805-.789 1.805-1.758 0-.02 0-.042-.002-.062 2.138-.9 4.22-1.956 6.203-3.148.312.247.71.397 1.142.397.995 0 1.805-.79 1.805-1.759a1.71 1.71 0 00-.077-.508 47.597 47.597 0 009.512-8.837c.175.055.362.085.555.085.996 0 1.806-.789 1.806-1.758 0-.374-.121-.72-.326-1.006a46.773 46.773 0 002.398-3.78.578.578 0 00-.235-.797.61.61 0 00-.817.229 45.618 45.618 0 01-2.325 3.665 1.843 1.843 0 00-.5-.07c-.996 0-1.806.79-1.806 1.759 0 .354.109.684.295.96a46.408 46.408 0 01-9.27 8.606 1.83 1.83 0 00-1.015-.305c-.996 0-1.806.788-1.806 1.758 0 .123.014.244.039.36a47.504 47.504 0 01-6.02 3.059 1.822 1.822 0 00-1.361-.606c-.995 0-1.805.789-1.805 1.758v.049c-.382.13-.767.257-1.151.377-1.548.485-3.25.495-4.67.028-.36-.117-.72-.24-1.077-.367.287-.249.57-.501.846-.755a10.18 10.18 0 013.825-2.179 43.442 43.442 0 0014.903-8.08c.287.19.633.3 1.005.3.995 0 1.805-.79 1.805-1.759 0-.313-.085-.608-.233-.863a42.333 42.333 0 006.902-8.791c.127.027.258.042.393.042.995 0 1.805-.789 1.805-1.758 0-.435-.163-.834-.433-1.141a9.71 9.71 0 011.871-1.792c.306-.222.61-.45.912-.682.067.366.128.732.185 1.098.146.934.072 1.951-.212 2.941a.584.584 0 00.416.722.6.6 0 00.742-.406c.33-1.148.415-2.336.243-3.432a43.085 43.085 0 00-.157-.948c1.599 1.128 2.308 3.563 1.631 6.066a.962.962 0 00.325.993.576.576 0 01.213.498.597.597 0 01-.67.533 1.016 1.016 0 00-1.001.487 49.28 49.28 0 01-9.25 11.476.953.953 0 00-.137 1.267.57.57 0 01.103.403.599.599 0 01-.553.514.609.609 0 01-.44-.143 1.026 1.026 0 00-1.31-.022 50.698 50.698 0 01-7.94 5.28.962.962 0 00-.486 1.105.576.576 0 01.013.24.598.598 0 01-.499.49.612.612 0 01-.56-.209 1.023 1.023 0 00-1.213-.257 51.471 51.471 0 01-3.597 1.498.581.581 0 00-.347.756.602.602 0 00.777.338 52.663 52.663 0 003.556-1.475c.405.404.977.592 1.562.508.777-.113 1.399-.722 1.512-1.48a1.717 1.717 0 00-.007-.557 51.91 51.91 0 007.873-5.235c.343.245.761.362 1.192.332.866-.06 1.565-.713 1.662-1.55a1.726 1.726 0 00-.217-1.06A50.454 50.454 0 0038.107 16.8c.177.009.355-.008.53-.052a1.77 1.77 0 001.358-1.564 1.74 1.74 0 00-.543-1.402zm-9.215-9.717c-.377.008-1.02-.17-1.198-.581-.165-.38.067-.941.385-1.19.211-.166.508-.242.848-.242.548 0 1.21.198 1.81.542-.546.898-1.213 1.457-1.845 1.47zm1.217 14.69c.332 0 .602.264.602.587 0 .323-.27.586-.602.586a.595.595 0 01-.602-.586c0-.323.27-.586.602-.586zm-11.796 11.02c.332 0 .603.262.603.585 0 .324-.27.587-.602.587a.595.595 0 01-.602-.587c0-.323.27-.586.602-.586zm-9.147 4.57c.332 0 .602.264.602.587 0 .323-.27.586-.602.586a.595.595 0 01-.602-.586c0-.323.27-.586.602-.586zm11.876-11.213a.595.595 0 01-.602-.586c0-.323.27-.586.602-.586.332 0 .602.263.602.586 0 .323-.27.586-.602.586zm8.867-11.37a.595.595 0 01-.602-.586c0-.324.27-.587.602-.587.332 0 .602.263.602.587 0 .323-.27.586-.602.586zm5.49-9.757l.392-.72.98 1.062a.191.191 0 01-.003.264 4.943 4.943 0 00-1.273 2.45l-.22 1.112a5.578 5.578 0 00-1.308-.413l.235-.824c.29-1.014.693-2 1.198-2.93z"/></symbol><symbol viewBox="0 0 16 16" id="deleted" xmlns="http://www.w3.org/2000/svg"><path d="M8 0C3.589 0 0 3.589 0 8s3.589 8 8 8 8-3.589 8-8-3.589-8-8-8zm0 15.448C3.892 15.448.552 12.108.552 8 .552 3.892 3.892.552 8 .552c4.108 0 7.448 3.34 7.448 7.448 0 4.108-3.34 7.448-7.448 7.448z"/><path d="M8.292 8l2.314-2.314a.205.205 0 00.045-.225.205.205 0 00-.191-.128.206.206 0 00-.146.06L8 7.709 5.685 5.394a.206.206 0 00-.292.292L7.708 8l-2.315 2.315a.206.206 0 00.292.291L8 8.292l2.314 2.314a.208.208 0 00.292 0 .205.205 0 00.045-.224.205.205 0 00-.045-.067L8.292 8z"/></symbol><symbol viewBox="0 0 33 32" id="dessert" xmlns="http://www.w3.org/2000/svg"><g clip-path="url(#eclip0_277_13471)"><path d="M18.17 15.792a2.36 2.36 0 00-1.67-.696 2.36 2.36 0 00-1.67.696s-1.31 1.336-1.684 1.637L14.291 32h4.424l1.147-14.561c-.216-.12-1.694-1.647-1.694-1.647zM9.875 15.642a2.364 2.364 0 00-1.583-.692 2.358 2.358 0 00-1.628.575L4.37 17.49l2.208 12.46c.102.573.398 1.092.836 1.465.439.373.992.577 1.563.576h4.005l-1.14-14.478c-.26-.1-1.967-1.87-1.967-1.87zM15.97 2.68c.17.069.35.106.531.11.228.006.453-.049.654-.16.2-.11.37-.27.49-.468a1.392 1.392 0 00.088-1.38 1.394 1.394 0 00-.39-.489 1.361 1.361 0 00-1.18-.25c-.202.052-.39.15-.55.288a1.422 1.422 0 00-.322 1.73c.154.277.393.494.68.62z"/><path d="M24.409 8.512l-.374-.09-.092-.381c-.586-2.338-2.674-4.239-5.377-4.886-.245.316-.56.57-.92.738a2.47 2.47 0 01-1.148.233c-1.098 0-2.006-.918-2.058-.981-2.7.647-4.788 2.528-5.371 4.879l-.089.397-.376.1a6.39 6.39 0 00-3.803 2.85 6.607 6.607 0 00-.841 4.732l1.858-1.593a3.654 3.654 0 012.52-.89c.92.034 1.793.415 2.451 1.07l1.639 1.617 1.5-1.48a3.547 3.547 0 011.18-.797 3.495 3.495 0 011.39-.265 3.693 3.693 0 012.585 1.085l1.469 1.463 1.674-1.64a3.663 3.663 0 012.446-1.055c.915-.031 1.81.286 2.509.888l1.855 1.597a6.597 6.597 0 00-.828-4.736 6.381 6.381 0 00-3.8-2.855z"/><path d="M23.134 15.622s-1.763 1.783-1.966 1.863L20.024 31.99h4.011c.571 0 1.124-.204 1.563-.577.438-.373.734-.89.836-1.464l1.098-6.192 1.09-6.269-2.293-1.973a2.362 2.362 0 00-1.618-.572c-.59.02-1.152.262-1.577.679z"/></g><defs><clipPath id="eclip0_277_13471"><path transform="translate(.5)" d="M0 0h32v32H0z"/></clipPath></defs></symbol><symbol viewBox="0 0 33 32" id="drink" xmlns="http://www.w3.org/2000/svg"><path d="M17.605 6.513V3.681L23.6 2.257a1 1 0 00.733-1.237l-.025-.092a1 1 0 00-1.192-.71l-6.947 1.62a1 1 0 00-.773.973v3.702H8.167a1 1 0 00-1 1v3.602h18.666V7.513a1 1 0 00-1-1h-7.228zM7.253 12.885l2.542 17.274C9.942 31.221 10.9 32 11.969 32h8.952c1.105 0 2.026-.778 2.174-1.84l2.542-17.274H7.253z"/></symbol><symbol viewBox="0 0 16 16" id="filter" xmlns="http://www.w3.org/2000/svg"><path d="M6.333 16A.334.334 0 016 15.667V8.932a1 1 0 00-.336-.747L.559 3.649A1.669 1.669 0 010 2.4V1c0-.551.449-1 1-1h14c.551 0 1 .449 1 1v1.4c0 .48-.204.935-.56 1.25l-5.104 4.535a1 1 0 00-.336.747v4.357c0 .348-.185.677-.485.857l-3.011 1.806a.326.326 0 01-.17.048zM1 .667A.334.334 0 00.667 1v1.4A1 1 0 001 3.15l5.106 4.536c.355.316.56.77.56 1.246v6.146l2.505-1.503c.1-.06.161-.17.161-.286V8.933c0-.476.205-.931.56-1.246L15 3.15c.212-.188.334-.462.334-.751V1A.334.334 0 0015 .667H1z"/></symbol><symbol viewBox="0 0 33 32" id="fire" xmlns="http://www.w3.org/2000/svg"><g clip-path="url(#hclip0_277_13482)"><path d="M28.432 18.735c-.367-4.772-2.589-7.763-4.55-10.402C22.069 5.89 20.5 3.78 20.5.668a.668.668 0 00-1.055-.543c-2.944 2.107-5.4 5.658-6.258 9.045-.596 2.359-.675 5.01-.686 6.762-2.718-.581-3.334-4.648-3.34-4.692a.664.664 0 00-.951-.506c-.144.07-3.5 1.775-3.696 8.585-.013.226-.014.454-.014.68 0 6.617 5.383 12 12 12 .01 0 .019.002.027 0h.008c6.6-.019 11.965-5.395 11.965-12 0-.332-.068-1.264-.068-1.264zM16.5 30.665c-2.206 0-4-1.91-4-4.26 0-.08 0-.16.005-.26.027-.99.215-1.667.421-2.117.387.83 1.079 1.595 2.202 1.595a.666.666 0 00.666-.667c0-.95.02-2.044.256-3.032.21-.877.713-1.809 1.35-2.556.283.97.835 1.755 1.374 2.521.772 1.096 1.57 2.23 1.71 4.163.008.114.016.23.016.353 0 2.35-1.794 4.26-4 4.26z"/></g><defs><clipPath id="hclip0_277_13482"><path transform="translate(.5)" d="M0 0h32v32H0z"/></clipPath></defs></symbol><symbol viewBox="0 0 42 42" id="pepperoni" xmlns="http://www.w3.org/2000/svg"><path d="M21 1C9.972 1 1 9.972 1 21s8.972 20 20 20 20-8.972 20-20S32.028 1 21 1zm0 36.364c-9.023 0-16.364-7.341-16.364-16.364S11.977 4.636 21 4.636 37.364 11.977 37.364 21 30.023 37.364 21 37.364z" stroke-width="2"/><path d="M17.572 26.755a1.819 1.819 0 00-3.033 2.006l.502.758a1.818 1.818 0 003.033-2.006l-.502-.758zM14.81 16.096l.449-.79a1.818 1.818 0 00-3.162-1.797l-.449.79a1.818 1.818 0 103.161 1.797zM27.306 28.217l-.9-.119a1.817 1.817 0 10-.475 3.605l.901.12a1.817 1.817 0 10.474-3.606zM29.525 14.084a1.817 1.817 0 10-3.507.96l.24.877a1.818 1.818 0 003.507-.96l-.24-.877zM22.301 18.288a1.818 1.818 0 10-2.622 2.518l.63.656a1.818 1.818 0 102.622-2.518l-.63-.656z"/></symbol><symbol viewBox="0 0 33 32" id="pizza" xmlns="http://www.w3.org/2000/svg"><g clip-path="url(#jclip0_277_13438)"><path d="M26.655 23.005a2.887 2.887 0 01-.834 2.325 2.883 2.883 0 01-2.323.835 1.693 1.693 0 00-1.702.984 2.885 2.885 0 01-1.884 1.596 2.88 2.88 0 01-2.429-.44c-.12-.085-.25-.149-.383-.2V32c5.447-.202 10.204-3.141 12.94-7.482l-3.366-1.945a1.684 1.684 0 00-.019.432zM13.84 28.845a2.9 2.9 0 01-2.636-1.696 1.695 1.695 0 00-1.702-.984 2.884 2.884 0 01-2.323-.835 2.887 2.887 0 01-.834-2.325 1.687 1.687 0 00-.019-.432l-3.365 1.945c2.735 4.34 7.492 7.28 12.939 7.482v-3.894a1.68 1.68 0 00-.383.2 2.881 2.881 0 01-1.677.539zM13.399 4.415c-.49.131-.892.472-1.102.934a2.897 2.897 0 01-2.91 1.682c-.506-.049-1.001.129-1.36.488-.359.36-.536.855-.488 1.36.04.405-.015.8-.135 1.17L15.9 14.96V5.14c-.38-.081-.75-.232-1.08-.468a1.687 1.687 0 00-1.421-.257zm.168 6.5a1.892 1.892 0 01-2.587-.694 1.896 1.896 0 01.693-2.589 1.893 1.893 0 012.587.694 1.896 1.896 0 01-.693 2.59zM5.362 21.3a2.884 2.884 0 01-1.595-1.884 2.887 2.887 0 01.44-2.432c.419-.588.419-1.38 0-1.968a2.888 2.888 0 01-.44-2.431A2.885 2.885 0 015.362 10.7c.134-.061.254-.142.364-.232L2.358 8.52A15.924 15.924 0 00.5 16.001c0 2.7.674 5.244 1.858 7.478l3.368-1.946c-.11-.09-.23-.171-.364-.233zM19.912 3.255a2.884 2.884 0 011.884 1.596c.299.658.984 1.054 1.702.984a2.883 2.883 0 012.323.835c.614.614.917 1.461.834 2.325-.014.147-.004.291.019.432l3.365-1.945C27.304 3.142 22.547.202 17.1 0v3.894c.133-.05.263-.114.383-.2a2.878 2.878 0 012.429-.44z"/><path d="M4.926 19.104c.131.49.471.893.933 1.103.37.169.684.413.945.703L15.3 16l-8.496-4.91c-.26.29-.575.534-.945.702-.462.211-.802.613-.933 1.104-.131.49-.038 1.009.257 1.422a2.897 2.897 0 010 3.364 1.69 1.69 0 00-.257 1.422zm3.814-5a1.894 1.894 0 11-.001 3.79 1.894 1.894 0 01.001-3.79zM2.96 7.482l3.366 1.945c.023-.14.033-.285.019-.432a2.887 2.887 0 01.834-2.325 2.882 2.882 0 012.323-.835 1.694 1.694 0 001.702-.984 2.885 2.885 0 011.884-1.596 2.88 2.88 0 012.429.44c.12.085.25.149.383.2V0C10.453.202 5.696 3.141 2.96 7.482zM30.642 8.521l-3.368 1.947c.11.09.23.17.364.232.79.36 1.37 1.046 1.595 1.885a2.887 2.887 0 01-.44 2.431c-.419.589-.419 1.38 0 1.968.505.707.665 1.593.44 2.432a2.885 2.885 0 01-1.595 1.885 1.681 1.681 0 00-.364.232l3.368 1.946A15.925 15.925 0 0032.5 16c0-2.7-.674-5.245-1.858-7.479zM7.54 23.12a1.695 1.695 0 001.847 1.85 2.888 2.888 0 012.91 1.68c.21.463.612.804 1.102.935.49.131 1.008.038 1.42-.257.331-.236.7-.387 1.081-.468v-9.82l-8.496 4.91c.12.37.174.766.135 1.17zm3.44-1.341a1.892 1.892 0 012.587-.694 1.896 1.896 0 01.693 2.589 1.893 1.893 0 01-2.587.694 1.896 1.896 0 01-.693-2.59zM19.601 27.585c.49-.131.892-.472 1.102-.934a2.9 2.9 0 012.91-1.682 1.694 1.694 0 001.848-1.849c-.04-.404.015-.8.135-1.17L17.1 17.04v9.82c.38.081.75.232 1.08.468.413.295.932.389 1.421.257zm-.168-6.5a1.893 1.893 0 012.587.694 1.896 1.896 0 01-.694 2.589 1.893 1.893 0 01-2.586-.694 1.896 1.896 0 01.693-2.59z"/><path d="M28.074 12.896a1.687 1.687 0 00-.933-1.103 2.876 2.876 0 01-.945-.703L17.7 16l8.496 4.91c.26-.29.575-.534.945-.703.462-.21.802-.612.933-1.103.131-.49.038-1.009-.257-1.422a2.897 2.897 0 010-3.364c.295-.413.388-.932.257-1.422zm-3.815 5a1.894 1.894 0 11.002-3.79 1.894 1.894 0 01-.002 3.79zM25.46 8.88a1.692 1.692 0 00-1.847-1.85 2.89 2.89 0 01-2.91-1.68 1.689 1.689 0 00-2.523-.678c-.33.236-.7.387-1.08.468v9.82l8.496-4.91a2.88 2.88 0 01-.136-1.17zm-3.44 1.341a1.893 1.893 0 01-2.587.694 1.896 1.896 0 01-.693-2.589 1.893 1.893 0 012.587-.694 1.896 1.896 0 01.693 2.59z"/></g><defs><clipPath id="jclip0_277_13438"><path transform="translate(.5)" d="M0 0h32v32H0z"/></clipPath></defs></symbol><symbol viewBox="0 0 33 32" id="sauce" xmlns="http://www.w3.org/2000/svg"><g clip-path="url(#kclip0_277_13524)"><path d="M32.48 10.421C32.45 7.978 30.459 6 28.015 6c-2.182 0-4.003 1.58-4.39 3.658-.767.341-2.1.886-2.894 1.018-.957.16-2.114.208-3.44.143-2.53-.125-5.056-.952-7.305-2.392-2.83-1.811-5.24-2.235-7.815-1.374A2.461 2.461 0 00.5 9.399c0 .347.188.666.49.832.344.189.667.353.979.51 1.69.857 2.621 1.329 3.238 3.929.461 1.94 1.268 3.568 2.397 4.836a8.956 8.956 0 001.613 1.42h12.83c1.938-1.46 3.125-3.675 3.451-6.468a14.55 14.55 0 00-.084-3.859.937.937 0 00.009-.118 2.593 2.593 0 015.183 0c0 .045.003.09.01.135 0 .01.104.948-.474 1.622-.474.552-1.31.832-2.488.832a.942.942 0 00-.937.946c0 .523.42.947.937.947 1.746 0 3.06-.5 3.905-1.486 1.038-1.209.961-2.678.922-3.056zM9.222 22.82c-.053.203-.08.417-.08.637v1.596c0 .523.42.947.937.947h11.165a.942.942 0 00.938-.947v-1.596c0-.22-.028-.434-.08-.638H9.222z"/></g><defs><clipPath id="kclip0_277_13524"><path transform="translate(.5)" d="M0 0h32v32H0z"/></clipPath></defs></symbol><symbol viewBox="0 0 41 27" id="sauce-stroke" xmlns="http://www.w3.org/2000/svg"><path d="M40.476 6.527C40.436 3.472 37.946 1 34.893 1c-2.728 0-5.004 1.974-5.487 4.573-.96.426-2.625 1.107-3.618 1.272-1.197.2-2.644.26-4.3.178-3.162-.155-6.32-1.189-9.131-2.989-3.538-2.264-6.55-2.794-9.77-1.718A3.077 3.077 0 00.5 5.25c0 .433.235.832.612 1.04.431.236.834.44 1.224.638 2.113 1.07 3.277 1.66 4.048 4.91.576 2.427 1.584 4.46 2.997 6.045.882.99 1.926 1.809 3.113 2.444a3.204 3.204 0 00-1.192 2.495v1.996c0 .653.525 1.183 1.172 1.183H26.43c.647 0 1.172-.53 1.172-1.183V22.82a3.204 3.204 0 00-1.182-2.487c3.024-1.78 4.866-4.807 5.327-8.761a18.19 18.19 0 00-.104-4.824 1.18 1.18 0 00.01-.147 3.241 3.241 0 013.24-3.236 3.241 3.241 0 013.24 3.236c0 .056.004.112.012.168.001.012.13 1.185-.592 2.027-.592.69-1.639 1.04-3.11 1.04-.647 0-1.172.53-1.172 1.183 0 .654.525 1.183 1.172 1.183 2.182 0 3.824-.625 4.881-1.857 1.297-1.51 1.202-3.347 1.152-3.82zM25.189 18.32c-.985.57-2.102.942-3.32 1.102-4.083.539-11.227.198-13.206-8.137-1.025-4.32-2.995-5.318-5.275-6.474l-.272-.137a.681.681 0 01.208-.113c2.524-.843 4.85-.404 7.777 1.47 3.154 2.02 6.706 3.179 10.273 3.355 1.822.09 3.435.02 4.797-.208.977-.162 2.287-.648 3.28-1.056a15.6 15.6 0 01-.039 3.239c-.392 3.221-1.813 5.563-4.223 6.96zm-10.697 3.662h9.92c.467 0 .846.376.846.838v.813H13.646v-.813c0-.462.38-.838.846-.838z"/></symbol><symbol viewBox="0 0 16 14" id="send" xmlns="http://www.w3.org/2000/svg"><path d="M15.047 5.594L2.137.317A1.555 1.555 0 00.536.573a1.5 1.5 0 00-.486 1.526l1.149 4.44h5.626c.258 0 .468.206.468.461s-.21.462-.468.462H1.198L.048 11.9a1.5 1.5 0 00.487 1.526c.446.38 1.06.477 1.603.255l12.91-5.276c.587-.24.952-.78.952-1.406 0-.627-.365-1.166-.953-1.406z"/></symbol><symbol viewBox="0 0 33 32" id="snacks" xmlns="http://www.w3.org/2000/svg"><path d="M9.565 0c-.295 0-.516.238-.533.533v8.095c.536.194.952.666 1.046 1.251.003.02.216 1.214 1.087 2.471V.533A.532.532 0 0010.632 0H9.565zm12.8 0c-.295 0-.516.238-.533.533v11.812c.876-1.267 1.09-2.476 1.09-2.476.097-.58.51-1.048 1.043-1.24V.532A.532.532 0 0023.432 0h-1.067zm-9.6 2.133a.532.532 0 00-.533.534V13.55a5.268 5.268 0 002.133 1.122V2.667a.532.532 0 00-.533-.534h-1.067zm6.4 0a.532.532 0 00-.533.534v12.006a5.264 5.264 0 002.133-1.124V2.667a.532.532 0 00-.533-.534h-1.067zm-12.8 2.134a.532.532 0 00-.533.533v3.732h2.133V4.8a.532.532 0 00-.533-.533H6.365zm9.6 0a.532.532 0 00-.533.533v10.075c.33.037.685.058 1.065.058.382 0 .736-.02 1.068-.058V4.8a.532.532 0 00-.533-.533h-1.067zm9.6 0a.532.532 0 00-.533.533v3.732h2.133V4.8a.532.532 0 00-.533-.533h-1.067zM3.698 9.599a.533.533 0 00-.527.602l2.666 20.264C5.93 31.258 6.55 32 7.43 32h18.134c.877 0 1.497-.74 1.594-1.531l2.67-20.268a.533.533 0 00-.532-.602h-4.799a.533.533 0 00-.524.449s-.252 1.48-1.311 2.976C21.603 14.519 19.8 16 16.498 16c-3.302 0-5.106-1.48-6.165-2.976-1.06-1.495-1.308-2.976-1.308-2.976a.533.533 0 00-.527-.449h-4.8zm12.8 10.135a4.272 4.272 0 014.267 4.264 4.276 4.276 0 01-4.267 4.268 4.277 4.277 0 01-4.268-4.268 4.274 4.274 0 014.268-4.264z"/></symbol><symbol viewBox="0 0 33 32" id="sushi" xmlns="http://www.w3.org/2000/svg"><g clip-path="url(#oclip0_277_13489)"><path d="M19.96 19.382c-4.257 0-8.267.626-11.6 1.81a7.578 7.578 0 01-2.544.44 7.5 7.5 0 01-3.047-.647A6.79 6.79 0 009.319 26h15.492a6.79 6.79 0 006.574-5.104 3.314 3.314 0 01-.893-.125c-3.212-.909-6.855-1.39-10.533-1.39zM10.541 18.252a36.725 36.725 0 014.146-.752c-2.782-3.04-3.041-8.159-.503-11.5a22.225 22.225 0 00-5.896.974 6.831 6.831 0 00-1.928 3.377c-.813 3.207 1.083 6.767 4.181 7.901z"/><path d="M7.604 19.122c-2.782-2.081-4.231-5.678-3.395-9.27a8.97 8.97 0 01.42-1.322 16.43 16.43 0 00-2.078 1.372C-1.458 13 .825 19.442 5.816 19.43c.594 0 1.198-.1 1.788-.308zM26.446 9.226a4.86 4.86 0 00-2.235 2.247 4.849 4.849 0 00.466 5.014c.164.222.77.89.826 1.042 1.924.245 3.807.618 5.592 1.123.37.105.77.01 1.053-.253a1.1 1.1 0 00.33-1.03c-.675-3.26-2.888-6.11-6.032-8.143zM17.69 17.238a44.341 44.341 0 014.848.017 7.04 7.04 0 01-.314-6.74 7.06 7.06 0 012.026-2.503c-2.139-1.004-4.572-1.674-7.164-1.92-3.509 2.89-3.18 8.677.604 11.146z"/></g><defs><clipPath id="oclip0_277_13489"><path transform="translate(.5)" d="M0 0h32v32H0z"/></clipPath></defs></symbol></svg>